<mxfile modified="2022-12-13T14:11:00.465Z" host="app.diagrams.net" agent="5.0 (X11)" etag="5-b2pnzHEjxCBwfWB1lJ" version="20.6.2" type="github">
  <diagram id="Ht1M8jgEwFfnCIfOTk4-" name="Page-1">
    <mxGraphModel dx="3555" dy="1898" grid="1" gridSize="10" guides="1" tooltips="1" connect="1" arrows="1" fold="1" page="1" pageScale="1" pageWidth="1169" pageHeight="827" math="0" shadow="0">
      <root>
        <mxCell id="0" />
        <mxCell id="1" parent="0" />
        <mxCell id="6ciUN1QbZPSy4jL6s6Ek-6" value="" style="rounded=1;whiteSpace=wrap;html=1;strokeWidth=3;fontSize=30;fillColor=none;strokeColor=#FF5314;" parent="1" vertex="1">
          <mxGeometry x="134" y="49" width="900" height="730" as="geometry" />
        </mxCell>
        <mxCell id="WtpMCDl6iTXo-ijKsgBG-17" style="edgeStyle=orthogonalEdgeStyle;rounded=0;orthogonalLoop=1;jettySize=auto;html=1;entryX=0.5;entryY=1;entryDx=0;entryDy=0;strokeWidth=6;fontSize=24;fontColor=#FF8D36;" parent="1" source="WtpMCDl6iTXo-ijKsgBG-7" target="6ciUN1QbZPSy4jL6s6Ek-3" edge="1">
          <mxGeometry relative="1" as="geometry" />
        </mxCell>
        <mxCell id="WtpMCDl6iTXo-ijKsgBG-7" value="" style="rounded=0;whiteSpace=wrap;html=1;dashed=1;strokeWidth=5;fillColor=none;" parent="1" vertex="1">
          <mxGeometry x="589" y="483" width="380" height="166" as="geometry" />
        </mxCell>
        <mxCell id="WtpMCDl6iTXo-ijKsgBG-16" style="edgeStyle=orthogonalEdgeStyle;rounded=0;orthogonalLoop=1;jettySize=auto;html=1;entryX=0.5;entryY=0;entryDx=0;entryDy=0;strokeWidth=6;fontSize=30;fontColor=#FF8D36;" parent="1" source="6ciUN1QbZPSy4jL6s6Ek-3" target="WtpMCDl6iTXo-ijKsgBG-7" edge="1">
          <mxGeometry relative="1" as="geometry" />
        </mxCell>
        <mxCell id="WtpMCDl6iTXo-ijKsgBG-18" style="edgeStyle=orthogonalEdgeStyle;rounded=0;orthogonalLoop=1;jettySize=auto;html=1;strokeWidth=6;fontSize=24;fontColor=#FF8D36;" parent="1" source="6ciUN1QbZPSy4jL6s6Ek-3" target="UEzPUAAOIrF-is8g5C7q-109" edge="1">
          <mxGeometry relative="1" as="geometry" />
        </mxCell>
        <mxCell id="6ciUN1QbZPSy4jL6s6Ek-3" value="" style="rounded=0;whiteSpace=wrap;html=1;dashed=1;strokeWidth=5;fillColor=none;" parent="1" vertex="1">
          <mxGeometry x="589" y="239" width="380" height="166" as="geometry" />
        </mxCell>
        <mxCell id="WtpMCDl6iTXo-ijKsgBG-11" style="edgeStyle=orthogonalEdgeStyle;rounded=0;orthogonalLoop=1;jettySize=auto;html=1;entryX=0;entryY=0.5;entryDx=0;entryDy=0;fontSize=30;fontColor=#FF8D36;strokeWidth=6;" parent="1" source="UEzPUAAOIrF-is8g5C7q-109" target="6ciUN1QbZPSy4jL6s6Ek-3" edge="1">
          <mxGeometry relative="1" as="geometry" />
        </mxCell>
        <mxCell id="UEzPUAAOIrF-is8g5C7q-109" value="&lt;div style=&quot;font-size: 24px;&quot;&gt;Client&lt;/div&gt;&lt;div style=&quot;font-size: 24px;&quot;&gt;&lt;br style=&quot;font-size: 24px;&quot;&gt;&lt;/div&gt;" style="outlineConnect=0;gradientColor=none;fontColor=#545B64;strokeColor=none;fillColor=#879196;dashed=0;verticalLabelPosition=middle;verticalAlign=middle;align=center;html=1;fontSize=24;fontStyle=0;aspect=fixed;shape=mxgraph.aws4.illustration_desktop;pointerEvents=1;labelBackgroundColor=none;horizontal=1;labelPosition=center;" parent="1" vertex="1">
          <mxGeometry x="164" y="275.5" width="100" height="91" as="geometry" />
        </mxCell>
        <mxCell id="6ciUN1QbZPSy4jL6s6Ek-7" value="&lt;font color=&quot;#FF642B&quot;&gt;Draw.io&lt;/font&gt;" style="text;html=1;align=center;verticalAlign=middle;resizable=0;points=[];autosize=1;strokeColor=none;fillColor=none;fontSize=30;" parent="1" vertex="1">
          <mxGeometry x="234" y="89" width="120" height="50" as="geometry" />
        </mxCell>
        <mxCell id="WtpMCDl6iTXo-ijKsgBG-1" value="" style="outlineConnect=0;dashed=0;verticalLabelPosition=bottom;verticalAlign=top;align=center;html=1;shape=mxgraph.aws3.cloud_2;fillColor=#F58534;gradientColor=none;" parent="1" vertex="1">
          <mxGeometry x="692" y="280.5" width="75" height="75" as="geometry" />
        </mxCell>
        <mxCell id="WtpMCDl6iTXo-ijKsgBG-2" value="" style="sketch=0;points=[[0,0,0],[0.25,0,0],[0.5,0,0],[0.75,0,0],[1,0,0],[0,1,0],[0.25,1,0],[0.5,1,0],[0.75,1,0],[1,1,0],[0,0.25,0],[0,0.5,0],[0,0.75,0],[1,0.25,0],[1,0.5,0],[1,0.75,0]];outlineConnect=0;fontColor=#232F3E;gradientColor=#60A337;gradientDirection=north;fillColor=#277116;strokeColor=#ffffff;dashed=0;verticalLabelPosition=bottom;verticalAlign=top;align=center;html=1;fontSize=12;fontStyle=0;aspect=fixed;shape=mxgraph.aws4.resourceIcon;resIcon=mxgraph.aws4.s3;" parent="1" vertex="1">
          <mxGeometry x="802" y="279" width="78" height="78" as="geometry" />
        </mxCell>
        <mxCell id="WtpMCDl6iTXo-ijKsgBG-3" value="&lt;div style=&quot;font-size: 30px;&quot;&gt;&lt;font color=&quot;#FF8D36&quot;&gt;aws s3 serves the index.html&amp;nbsp; &lt;/font&gt;&lt;/div&gt;" style="text;html=1;align=center;verticalAlign=middle;resizable=0;points=[];autosize=1;strokeColor=none;fillColor=none;labelBackgroundColor=default;" parent="1" vertex="1">
          <mxGeometry x="574" y="159" width="410" height="50" as="geometry" />
        </mxCell>
        <mxCell id="WtpMCDl6iTXo-ijKsgBG-4" value="" style="shape=image;html=1;verticalAlign=top;verticalLabelPosition=bottom;labelBackgroundColor=#ffffff;imageAspect=0;aspect=fixed;image=https://cdn0.iconfinder.com/data/icons/long-shadow-web-icons/512/nodejs-128.png" parent="1" vertex="1">
          <mxGeometry x="795" y="522" width="80" height="80" as="geometry" />
        </mxCell>
        <mxCell id="WtpMCDl6iTXo-ijKsgBG-6" value="&lt;div style=&quot;font-size: 30px;&quot;&gt;&lt;font color=&quot;#FF8D36&quot;&gt;the server has a systemd service &lt;br&gt;&lt;/font&gt;&lt;/div&gt;&lt;div style=&quot;font-size: 30px;&quot;&gt;&lt;font color=&quot;#FF8D36&quot;&gt;managing a node express js application that handles &lt;br&gt;&lt;/font&gt;&lt;/div&gt;&lt;div style=&quot;font-size: 30px;&quot;&gt;&lt;font color=&quot;#FF8D36&quot;&gt;the webRTC requests on the localhost:8090 &lt;br&gt;&lt;/font&gt;&lt;/div&gt;&lt;div style=&quot;font-size: 30px;&quot;&gt;&lt;font color=&quot;#FF8D36&quot;&gt;Apache then proxies and reverse proxies &lt;br&gt;&lt;/font&gt;&lt;/div&gt;&lt;div style=&quot;font-size: 30px;&quot;&gt;&lt;font color=&quot;#FF8D36&quot;&gt;these webRTC requests to/from the client&amp;nbsp; &lt;/font&gt;&lt;/div&gt;" style="text;html=1;align=center;verticalAlign=middle;resizable=0;points=[];autosize=1;strokeColor=none;fillColor=none;labelBackgroundColor=default;" parent="1" vertex="1">
          <mxGeometry x="82" y="610" width="720" height="190" as="geometry" />
        </mxCell>
        <mxCell id="WtpMCDl6iTXo-ijKsgBG-8" value="" style="dashed=0;outlineConnect=0;html=1;align=center;labelPosition=center;verticalLabelPosition=bottom;verticalAlign=top;shape=mxgraph.webicons.apache;gradientColor=#DFDEDE;labelBackgroundColor=default;fontSize=30;fontColor=#FF8D36;" parent="1" vertex="1">
          <mxGeometry x="685" y="522" width="80" height="80" as="geometry" />
        </mxCell>
      </root>
    </mxGraphModel>
  </diagram>
</mxfile>
